<svg xmlns="http://www.w3.org/2000/svg" version="1.1" xmlns:xlink="http://www.w3.org/1999/xlink" xmlns:svgjs="http://svgjs.dev/svgjs" viewBox="0 0 4.745744366884349 5.2568686559525135"><g transform="matrix(1,0,0,1,0.41612218344217444,3.4112464725103395)"><rect width="4.745744366884349" height="5.2568686559525135" x="-0.4161221834421744" y="-3.4112464725103395" fill="#102036"></rect><g><path d=" M 0.7365 0.378 Q 0.7365 0.378 0.711 0.363 Q 0.6855 0.348 0.6435 0.32924999999999993 Q 0.6015 0.3105 0.552 0.2955 Q 0.5025000000000001 0.28049999999999997 0.4545 0.28049999999999997 Q 0.417 0.28049999999999997 0.393 0.2925 Q 0.369 0.3045 0.369 0.33299999999999996 Q 0.369 0.36 0.393 0.37649999999999995 Q 0.417 0.3929999999999999 0.46125 0.4065 Q 0.5055000000000001 0.41999999999999993 0.5670000000000001 0.4395 Q 0.666 0.4694999999999999 0.738 0.5085 Q 0.81 0.5475 0.849 0.60825 Q 0.888 0.669 0.888 0.7695 Q 0.888 0.8654999999999999 0.8535 0.93075 Q 0.8190000000000001 0.996 0.7605000000000001 1.035 Q 0.7020000000000001 1.074 0.63 1.09125 Q 0.558 1.1085 0.483 1.1085 Q 0.40650000000000003 1.1085 0.32325 1.0927499999999999 Q 0.24 1.077 0.162 1.04925 Q 0.084 1.0215 0.0195 0.984 L 0.1455 0.7275 Q 0.1455 0.7275 0.17550000000000002 0.7454999999999999 Q 0.20550000000000002 0.7635 0.255 0.786 Q 0.3045 0.8085 0.36525 0.8265 Q 0.426 0.8445 0.4875 0.8445 Q 0.5355 0.8445 0.55425 0.83175 Q 0.5730000000000001 0.819 0.5730000000000001 0.798 Q 0.5730000000000001 0.7665 0.54 0.74925 Q 0.507 0.732 0.45375 0.7162499999999999 Q 0.4005 0.7004999999999999 0.336 0.6795 Q 0.243 0.6479999999999999 0.183 0.60825 Q 0.123 0.5685 0.0945 0.5137499999999999 Q 0.066 0.45899999999999996 0.066 0.381 Q 0.066 0.26249999999999996 0.1215 0.18299999999999994 Q 0.177 0.10349999999999993 0.26775 0.062249999999999917 Q 0.3585 0.020999999999999908 0.4635 0.020999999999999908 Q 0.5415 0.020999999999999908 0.61425 0.03974999999999995 Q 0.687 0.058499999999999996 0.75075 0.08549999999999991 Q 0.8145 0.11249999999999993 0.8625 0.13649999999999995 Z M 1.251 0.030000000000000027 L 1.5779999999999998 0.030000000000000027 L 1.917 1.095 L 1.62 1.095 L 1.5554999999999999 0.8865 L 1.272 0.8865 L 1.209 1.095 L 0.9105 1.095 Z M 1.509 0.6915 L 1.4144999999999999 0.3165 L 1.3155000000000001 0.6915 Z M 2.0205 1.095 L 2.0205 0.030000000000000027 L 2.43 0.030000000000000027 Q 2.607 0.030000000000000027 2.7262500000000003 0.10124999999999995 Q 2.8455 0.1725 2.90625 0.29325 Q 2.967 0.4139999999999999 2.967 0.5609999999999999 Q 2.967 0.723 2.90025 0.843 Q 2.8335 0.963 2.71275 1.029 Q 2.592 1.095 2.43 1.095 Z M 2.67 0.5609999999999999 Q 2.67 0.4784999999999999 2.6415 0.41625 Q 2.613 0.354 2.559 0.3195 Q 2.505 0.2849999999999999 2.43 0.2849999999999999 L 2.313 0.2849999999999999 L 2.313 0.84 L 2.43 0.84 Q 2.5065 0.84 2.55975 0.804 Q 2.613 0.768 2.6415 0.70425 Q 2.67 0.6405 2.67 0.5609999999999999 Z M 3.8685 0.84 L 3.8685 1.095 L 3.1094999999999997 1.095 L 3.1094999999999997 0.030000000000000027 L 3.8549999999999995 0.030000000000000027 L 3.8549999999999995 0.2849999999999999 L 3.4019999999999997 0.2849999999999999 L 3.4019999999999997 0.43499999999999994 L 3.7889999999999997 0.43499999999999994 L 3.7889999999999997 0.6719999999999999 L 3.4019999999999997 0.6719999999999999 L 3.4019999999999997 0.84 Z" fill="#ffffff" fill-rule="nonzero"></path></g><g></g><g clip-path="url(&quot;#SvgjsClipPath1002&quot;)"><path d=" M 1.456451703831564 -0.48051295693485696 C 2.134430988934085 -0.48051295693485696 2.6840369718492343 -1.0339654345695677 2.6840369718492343 -1.7168566104110963 C 2.6840369718492343 -2.399747786252625 2.134430988934085 -2.9532141001992764 1.456451703831564 -2.9532141001992764 C 0.7784724187290433 -2.9532141001992764 0.2288664358138937 -2.399678604692921 0.2288664358138937 -1.7168566104110963 C 0.2288664358138937 -1.034034616129272 0.7784862550409841 -0.48051295693485696 1.456451703831564 -0.48051295693485696 Z M 1.456451703831564 -0.4386027680659683 C 2.1574131030678663 -0.4386027680659683 2.7256427618554238 -1.010900302564141 2.7256427618554238 -1.7168566104110963 C 2.7256427618554238 -2.422812918258052 2.1574131030678663 -2.995124289068165 1.456451703831564 -2.995124289068165 C 0.7554903045952619 -2.995124289068165 0.1872606458077043 -2.4228267545699924 0.1872606458077043 -1.7168566104110963 C 0.1872606458077043 -1.0108864662522001 0.7554626319713802 -0.4386027680659683 1.456451703831564 -0.4386027680659683 Z" fill="#0094ff" transform="matrix(1,0,0,1,0,0)" fill-rule="evenodd"></path><path d=" M 1.2691910580238595 -0.4386027680659683 C 1.94717034312638 -0.4386027680659683 2.49677632604153 -0.9920552457006793 2.49677632604153 -1.674946421542208 C 2.49677632604153 -2.3578375973837367 1.9471703431263805 -2.9113039113303882 1.2691910580238595 -2.9113039113303882 C 0.5912117729213386 -2.9113039113303882 0.04161962631813021 -2.357768415824032 0.04161962631813021 -1.674946421542208 C 0.04161962631813021 -0.9921244272603835 0.5912256092332796 -0.4386027680659683 1.2691910580238595 -0.4386027680659683 Z M 1.2691910580238595 -0.3966925791970801 C 1.9701524572601614 -0.3966925791970801 2.53839595235966 -0.9689901136952528 2.53839595235966 -1.674946421542208 C 2.53839595235966 -2.380902729389163 1.9701524572601614 -2.9532141001992764 1.2691910580238595 -2.9532141001992764 C 0.5682296587875577 -2.9532141001992764 0 -2.380916565701104 0 -1.674946421542208 C 0 -0.9689762773833115 0.5682434950994983 -0.396664906573198 1.2691910580238595 -0.396664906573198 Z" fill="#0094ff" transform="matrix(1,0,0,1,0,0)" fill-rule="evenodd"></path><path d=" M 1.4980713301496942 -0.29191018886888864 C 2.176050615252215 -0.29191018886888864 2.7256427618554238 -0.8454456843752443 2.7256427618554238 -1.5282676786570684 C 2.7256427618554238 -2.211089672938893 2.176036778940274 -2.764611332133308 1.4980713301496942 -2.764611332133308 C 0.8201058813591142 -2.764611332133308 0.270486062132024 -2.2110758366269523 0.270486062132024 -1.5282676786570688 C 0.270486062132024 -0.8454595206871853 0.8200920450471735 -0.29191018886888864 1.4980713301496942 -0.29191018886888864 Z M 1.4980713301496942 -0.25 C 2.1990188930740553 -0.25 2.7672623881735534 -0.8222975344981727 2.7672623881735534 -1.5282676786570688 C 2.7672623881735534 -2.234237822815965 2.1990188930740553 -2.8065353573141376 1.4980713301496942 -2.8065353573141376 C 0.7971237672253328 -2.8065353573141376 0.22886643581389365 -2.234223986504024 0.22886643581389365 -1.5282676786570688 C 0.22886643581389365 -0.8223113708101135 0.7971099309133921 -0.25 1.4980713301496942 -0.25 Z" fill="#0094ff" transform="matrix(1,0,0,1,0,0)" fill-rule="evenodd"></path><path d=" M 0.9873833833062081 -1.3651089389815532 C 0.9893010980589272 -1.3238780717980942 1.0000882435429717 -1.2864826341200732 1.0197448197583416 -1.2529226259474904 C 1.0394013959737116 -1.2193626177749073 1.0662494025117781 -1.1908366108282118 1.1002888393725407 -1.167344605107404 C 1.1343282762333033 -1.1438525993865958 1.174360571696313 -1.125634309235765 1.2203857257615698 -1.1126897346549116 C 1.2664108798268263 -1.0997451600740582 1.3167508920857007 -1.0932728727836314 1.371405762538193 -1.0932728727836314 C 1.4270194903670448 -1.0932728727836314 1.4771197882818292 -1.099984874418148 1.5217066562825465 -1.113408877687181 C 1.5662935242832638 -1.1268328809562145 1.6044081049935546 -1.1460100284834047 1.6360503984134185 -1.170940320268752 C 1.6676926918332824 -1.1958706120540994 1.69214355493045 -1.2260746194094239 1.7094029877049213 -1.261552342334726 C 1.7266624204793923 -1.297030065260028 1.735292136866628 -1.336343217690768 1.735292136866628 -1.379491799626946 C 1.735292136866628 -1.4389409569612357 1.7204298475330555 -1.4876029688114811 1.6907052688659108 -1.5254778351776819 C 1.6609806901987658 -1.5633527015438826 1.6238249668648348 -1.5949949949637465 1.5792380988641175 -1.6204047154372736 C 1.5346512308634002 -1.6458144359108007 1.4862289333572445 -1.6671490125347999 1.4339712063456511 -1.6844084453092711 C 1.3817134793340577 -1.7016678780837422 1.3332911818279023 -1.7198861682345732 1.288704313827185 -1.7390633157617632 C 1.2441174458264677 -1.7582404632889534 1.2069617224925366 -1.7802941829452223 1.1772371438253917 -1.8052244747305697 C 1.1475125651582467 -1.8301547665159168 1.1326502758246744 -1.8632353460003204 1.1326502758246744 -1.9044662131837793 C 1.1326502758246744 -1.9274787902164077 1.1376842770505617 -1.9490530811844966 1.1477522795023367 -1.9691890860880463 C 1.1578202819541115 -1.989325090991596 1.172682571287684 -2.0068242381101573 1.192339147503054 -2.0216865274437295 C 1.211995723718424 -2.036548816777302 1.2362068724715016 -2.0485345339817957 1.264972593762287 -2.0576436790572115 C 1.2937383150530724 -2.0667528241326267 1.3268188945374757 -2.0713073966703344 1.3642143322154965 -2.0713073966703344 C 1.4265400616788648 -2.0713073966703344 1.4795169317227281 -2.0581231077453914 1.523144942347086 -2.0317545298955046 C 1.5667729529714438 -2.005385952045618 1.5924223877890606 -1.9639153705180692 1.6000932467999367 -1.9073427853128577 L 1.697896699188607 -1.9073427853128577 C 1.69214355493045 -1.9428205082381598 1.6791989803495966 -1.9747025160021137 1.6590629754460466 -2.0029888086047194 C 1.6389269705424971 -2.0312751012073247 1.6135172500689698 -2.0552465356163125 1.5828338140254656 -2.0749031118316825 C 1.552150377981961 -2.0945596880470525 1.5173917980889287 -2.109421977380625 1.4785580743463687 -2.1194899798324 C 1.4397243506038082 -2.129557982284175 1.3992126264526188 -2.134591983510062 1.3570229018928002 -2.134591983510062 C 1.3129154625802626 -2.134591983510062 1.270965452364534 -2.1288388392519053 1.2311728712456143 -2.117332550735591 C 1.1913802901266943 -2.105826262219277 1.1563819958895722 -2.0890462581329854 1.1261779885342476 -2.0669925384767165 C 1.0959739811789229 -2.044938818820448 1.072002546769935 -2.017131954906022 1.0542636853072842 -1.9835719467334392 C 1.0365248238446332 -1.950011938560856 1.0276553931133077 -1.9116576435064756 1.0276553931133077 -1.8685090615702975 C 1.0276553931133077 -1.8119364763650863 1.0420382537587003 -1.7663907509880095 1.0708039750494858 -1.731871885439067 C 1.099569696340271 -1.6973530198901243 1.1357665622978428 -1.668587298599339 1.1793945729222006 -1.6455747215667107 C 1.2230225835465585 -1.6225621445340823 1.2702463093322645 -1.6029055683187123 1.3210657502793186 -1.5866049929206008 C 1.3718851912263728 -1.5703044175224892 1.4191089170120788 -1.5518464130275684 1.4627369276364366 -1.531230979435839 C 1.5063649382607944 -1.5106155458441095 1.542561804218366 -1.4854455397146722 1.5713275255091514 -1.4557209610475272 C 1.6000932467999367 -1.4259963823803825 1.6144761074453293 -1.3862038012614626 1.6144761074453293 -1.336343217690768 C 1.6144761074453293 -1.2740174882273996 1.5917032447567911 -1.2284717628503228 1.5461575193797141 -1.1997060415595373 C 1.5006117940026373 -1.170940320268752 1.4399640649478982 -1.1565574596233592 1.3642143322154965 -1.1565574596233592 C 1.3038063175048473 -1.1565574596233592 1.2553840199986919 -1.1644680329783252 1.2189474396970303 -1.1802891796882573 C 1.182510859395369 -1.1961103263981891 1.154703995480943 -1.2150477595812896 1.1355268479537528 -1.2371014792375583 C 1.1163497004265626 -1.2591551988938272 1.1034051258457092 -1.2819280615823656 1.0966931242111926 -1.3054200673031737 C 1.089981122576676 -1.3289120730239816 1.0861456930712379 -1.3488083635834416 1.0851868356948784 -1.3651089389815532 Z" fill="#006fbf" transform="matrix(1,0,0,1,0,0)" fill-rule="nonzero"></path></g></g><defs><clipPath id="SvgjsClipPath1002"><path d=" M 0 -2.995124289068165 h 2.7672623881735534 v 2.745124289068165 h -2.7672623881735534 Z"></path></clipPath></defs></svg>